<svg version="1.2" baseProfile="tiny-ps" xmlns="http://www.w3.org/2000/svg" viewBox="0 0 16 16" width="16" height="16">
	<title>download-svg</title>
	<style>
		tspan { white-space:pre }
		.shp0 { fill: #ff0000 } 
	</style>
	<path id="Layer" class="shp0" d="M0.29 0.29C0.39 0.2 0.5 0.13 0.62 0.08C0.74 0.03 0.87 0 1 0C1.13 0 1.26 0.03 1.38 0.08C1.5 0.13 1.61 0.2 1.71 0.29L8 6.59L14.29 0.29C14.48 0.1 14.74 -0.01 15 -0.01C15.27 -0.01 15.53 0.09 15.72 0.28C15.91 0.47 16.01 0.73 16.01 1C16.01 1.26 15.9 1.52 15.71 1.71L9.41 8L15.71 14.29C15.89 14.48 15.99 14.73 15.99 15C15.99 15.26 15.88 15.51 15.69 15.69C15.51 15.88 15.26 15.99 15 15.99C14.73 15.99 14.48 15.89 14.29 15.71L8 9.41L1.71 15.71C1.52 15.89 1.27 15.99 1 15.99C0.74 15.99 0.49 15.88 0.31 15.69C0.12 15.51 0.01 15.26 0.01 15C0.01 14.73 0.11 14.48 0.29 14.29L6.59 8L0.29 1.71C0.2 1.61 0.13 1.5 0.08 1.38C0.03 1.26 0 1.13 0 1C0 0.87 0.03 0.74 0.08 0.62C0.13 0.5 0.2 0.39 0.29 0.29L0.29 0.29Z" />
	<g id="Folder 1">
		<rect width="16" height="16" id="Color Fill 1" style="display: none;fill: #ff0000" />
	</g>
</svg>